<?xml version="1.0" encoding="utf-8"?>
<!-- Generator: Adobe Illustrator 24.2.0, SVG Export Plug-In . SVG Version: 6.00 Build 0)  -->
<svg version="1.1" id="Layer_1" xmlns="http://www.w3.org/2000/svg" xmlns:xlink="http://www.w3.org/1999/xlink" x="0px" y="0px"
	 viewBox="0 0 1080 1080" style="enable-background:new 0 0 1080 1080;" xml:space="preserve">
<style type="text/css">
	.st0{fill:#FF1659;}
	.st1{fill:none;stroke:#FF1659;stroke-width:24.923;stroke-miterlimit:10;}
	.st2{fill:none;stroke:#FF1659;stroke-width:4;stroke-miterlimit:10;}
	.st3{fill:none;stroke:#FF1659;stroke-width:20;stroke-miterlimit:10;}
</style>
<g>
	<g>
		<g>
			<path class="st0" d="M885.5,402.7l99.1-99c6.4,3.2,13.6,4.9,21,4.9c12.6,0,24.5-4.9,33.4-13.8c8.9-8.9,13.8-20.8,13.8-33.4
				c0-12.6-4.9-24.5-13.8-33.4c-8.9-8.9-20.8-13.8-33.4-13.8c-12.6,0-24.5,4.9-33.4,13.8c-8.9,8.9-13.8,20.8-13.8,33.4
				c0,7.4,1.7,14.6,4.9,21l-99,99.1c-6.3,6.3-14.6,9.7-23.5,9.7h-45.1v30.1h45.1C857.6,421.2,873.5,414.7,885.5,402.7z M993.4,249.2
				c3.2-3.2,7.5-5,12.1-5c4.6,0,8.9,1.8,12.1,5c3.2,3.2,5,7.5,5,12.1c0,4.6-1.8,8.9-5,12.1c-3.2,3.2-7.5,5-12.1,5
				c-4.6,0-8.9-1.8-12.1-5s-5-7.5-5-12.1C988.4,256.7,990.2,252.4,993.4,249.2z M973.4,711c26.1,0,47.2-21.2,47.2-47.2
				c0-26.1-21.2-47.2-47.2-47.2c-20.8,0-38.5,13.5-44.8,32.2h-133v30.1h133C934.9,697.5,952.6,711,973.4,711z M973.4,646.6
				c9.4,0,17.1,7.7,17.1,17.1c0,9.4-7.7,17.1-17.1,17.1c-9.5,0-17.1-7.7-17.1-17.1C956.2,654.3,963.9,646.6,973.4,646.6z"/>
		</g>
	</g>
	<line class="st1" x1="779" y1="534.7" x2="1040.5" y2="534.7"/>
	<line class="st1" x1="783.8" y1="600.8" x2="856.4" y2="600.8"/>
	<line class="st1" x1="793.2" y1="469.6" x2="854.6" y2="469.6"/>
	<g>
		<g>
			<path class="st0" d="M194.5,678l-99.1,99c-6.4-3.2-13.6-4.9-21-4.9c-12.6,0-24.5,4.9-33.4,13.8c-8.9,8.9-13.8,20.8-13.8,33.4
				c0,12.6,4.9,24.5,13.8,33.4c8.9,8.9,20.8,13.8,33.4,13.8c12.6,0,24.5-4.9,33.4-13.8c8.9-8.9,13.8-20.8,13.8-33.4
				c0-7.4-1.7-14.6-4.9-21l99-99.1c6.3-6.3,14.6-9.7,23.5-9.7h45.1v-30.1h-45.1C222.4,659.5,206.5,666.1,194.5,678z M86.6,831.5
				c-3.2,3.2-7.5,5-12.1,5c-4.6,0-8.9-1.8-12.1-5c-3.2-3.2-5-7.5-5-12.1c0-4.6,1.8-8.9,5-12.1c3.2-3.2,7.5-5,12.1-5
				c4.6,0,8.9,1.8,12.1,5c3.2,3.2,5,7.5,5,12.1C91.6,824,89.8,828.3,86.6,831.5z M106.6,369.8c-26.1,0-47.2,21.2-47.2,47.2
				c0,26.1,21.2,47.2,47.2,47.2c20.8,0,38.5-13.5,44.8-32.2h133V402h-133C145.1,383.3,127.4,369.8,106.6,369.8z M106.6,434.1
				c-9.4,0-17.1-7.7-17.1-17.1c0-9.4,7.7-17.1,17.1-17.1c9.4,0,17.1,7.7,17.1,17.1C123.8,426.5,116.1,434.1,106.6,434.1z"/>
		</g>
	</g>
	<g>
		<g>
			<path class="st0" d="M697.4,505.5c0-32.2-23.6-59.5-55.8-68.4c1-3.9,1.5-8,1.5-12.1c0-30.5-27.1-55.3-60.3-55.3
				c-18,0-34.2,7.3-45.3,18.8c-11.1-11.5-27.3-18.8-45.3-18.8c-33.3,0-60.3,24.8-60.3,55.3c0,4.1,0.5,8.2,1.5,12.1
				c-32.2,8.9-55.8,36.1-55.8,68.4c0,15.7,5.6,30.6,15.9,42.9c-10.1,13-15.9,28.8-15.9,45.7c0,25.6,13.7,49.5,36.2,64.3c0,0,0,0,0,0
				c0,34.9,31.1,63.3,69.4,63.3c22,0,41.6-9.4,54.3-24c12.7,14.6,32.3,24,54.3,24c36.8,0,67-26.3,69.2-59.4
				c22.4-13,36.4-35.7,36.4-60.2c0-18.1-7.7-35.3-20.9-48.3C689.7,540.8,697.4,523.6,697.4,505.5z M644.1,567.1
				c14.5,7.7,23.2,20.7,23.2,35c0,10.6-4.9,20.7-13.3,28.3c-7.9-14.7-21.9-26.3-39.6-31.9c-7.9-2.5-16.4,1.9-18.9,9.9
				c-2.5,7.9,1.9,16.4,9.9,18.9c15.4,4.8,25.7,17.4,25.7,31.2c0,18.3-17.6,33.2-39.3,33.2c-21.6,0-39.3-14.9-39.3-33.2v-96.6
				c0-18.3,17.6-33.2,39.3-33.2c8.3,0,15.1-6.7,15.1-15.1c0-8.3-6.7-15.1-15.1-15.1c-14.6,0-28.1,4.1-39.3,11.2v-19.2
				c0-8.3-6.7-15.1-15.1-15.1c-8.3,0-15.1,6.7-15.1,15.1v83.6c-5.1-3.2-10.6-5.8-16.6-7.7c-7.9-2.5-16.4,1.9-18.9,9.9
				c-2.5,7.9,1.9,16.4,9.9,18.9c15.4,4.8,25.7,17.4,25.7,31.2v32.2c0,18.3-17.6,33.2-39.3,33.2c-21.7,0-39.3-14.9-39.3-33.2
				c0-7.9,3.3-15.5,9.4-21.5c5.9-5.9,5.9-15.4,0.1-21.3c-5.9-5.9-15.4-5.9-21.3-0.1c-3.6,3.6-6.7,7.5-9.3,11.7
				c-9.5-9-15.1-20.8-15.1-33.2c0-22.3,17.5-41.9,42.6-47.7c8.1-1.9,13.2-9.9,11.3-18c-1.9-8.1-9.9-13.2-18-11.3
				c-10.1,2.3-19.4,6.2-27.6,11.3c-5.3-6.7-8.2-14.6-8.2-22.8c0-22.7,21.5-41.1,47.9-41.3c0.1,0,0.3,0,0.4,0c3.4,0,6.9-1.2,9.7-3.6
				c5.8-4.9,6.9-13.2,3.1-19.4c-0.1-0.2-0.2-0.4-0.3-0.6c-0.1-0.1-0.1-0.2-0.2-0.3c-0.2-0.3-0.5-0.6-0.7-1c0,0,0,0,0,0
				c-2.5-3-5.5-7.9-5.5-14.4c0-13.9,13.6-25.2,30.2-25.2c16.7,0,30.2,11.3,30.2,25.2c0,8.3,6.7,15.1,15.1,15.1
				c8.3,0,15.1-6.7,15.1-15.1c0-13.9,13.6-25.2,30.2-25.2c16.7,0,30.2,11.3,30.2,25.2c0,3.7-1,6.9-2.3,9.5
				c-8.6,0.8-16.9,2.9-24.7,6.2c-7.7,3.2-11.3,12.1-8,19.7c3.2,7.7,12.1,11.3,19.7,8c6.5-2.7,13.5-4.2,20.8-4.2c0.1,0,0.3,0,0.4,0
				c0.1,0,0.3,0,0.4,0c26.5,0.2,47.9,18.6,47.9,41.3c0,14.2-8.7,27.3-23.2,35c-4.9,2.6-8,7.7-8,13.3
				C636,559.4,639.1,564.5,644.1,567.1z"/>
		</g>
	</g>
	<polyline class="st1" points="334.8,309 783.4,309 783.4,745.2 	"/>
	<polyline class="st1" points="293.8,331.1 293.8,779.7 729.9,779.7 	"/>
	<line class="st1" x1="301" y1="546" x2="39.5" y2="546"/>
	<line class="st1" x1="296.2" y1="479.9" x2="223.6" y2="479.9"/>
	<line class="st1" x1="286.8" y1="611.1" x2="225.4" y2="611.1"/>
	<line class="st1" x1="472.8" y1="776.3" x2="472.8" y2="865.1"/>
	<line class="st1" x1="603.1" y1="776.3" x2="603.1" y2="865.1"/>
	<line class="st1" x1="537" y1="787.7" x2="537" y2="1029.4"/>
	<line class="st1" x1="472.8" y1="314.2" x2="472.8" y2="225.5"/>
	<line class="st1" x1="603.1" y1="312.2" x2="603.1" y2="223.5"/>
	<line class="st1" x1="537" y1="311.9" x2="537" y2="70.2"/>
	<line class="st1" x1="779.6" y1="546" x2="1041.1" y2="546"/>
	<line class="st1" x1="784.3" y1="479.9" x2="857" y2="479.9"/>
	<line class="st1" x1="793.8" y1="611.1" x2="855.1" y2="611.1"/>
	<g>
		<g>
			<path class="st0" d="M701.8,85.6c-28.3,0-51.4,23-51.4,51.4c0,22.6,14.7,41.8,35,48.7v126.4h32.8V185.7c20.3-6.9,35-26.1,35-48.7
				C753.2,108.7,730.1,85.6,701.8,85.6z M701.8,155.6c-10.3,0-18.6-8.4-18.6-18.6c0-10.3,8.4-18.6,18.6-18.6
				c10.3,0,18.6,8.4,18.6,18.6C720.4,147.3,712,155.6,701.8,155.6z M310.2,124.8c9.5-19.2,6.3-43.2-9.7-59.2c-20-20-52.6-20-72.7,0
				c-20,20-20,52.6,0,72.7c10,10,23.2,15,36.3,15c7.8,0,15.7-1.8,22.8-5.4l107.7,107.7c6.8,6.8,10.6,15.9,10.6,25.6v30.8h32.8v-30.8
				c0-18.4-7.2-35.7-20.2-48.7L310.2,124.8z M277.3,115.2c-7.3,7.3-19.1,7.3-26.3,0c-7.3-7.3-7.3-19.1,0-26.3
				c3.6-3.6,8.4-5.5,13.2-5.5c4.8,0,9.5,1.8,13.2,5.5C284.6,96.1,284.6,107.9,277.3,115.2z"/>
		</g>
	</g>
</g>
</svg>
