<?xml version="1.0" encoding="utf-8"?>
<!-- Generator: Adobe Illustrator 24.2.0, SVG Export Plug-In . SVG Version: 6.00 Build 0)  -->
<svg version="1.1" id="Layer_1" xmlns="http://www.w3.org/2000/svg" xmlns:xlink="http://www.w3.org/1999/xlink" x="0px" y="0px"
	 viewBox="0 0 1080 1080" style="enable-background:new 0 0 1080 1080;" xml:space="preserve">
<style type="text/css">
	.st0{fill:#FF1659;}
	.st1{fill:none;stroke:#FF1659;stroke-width:24.923;stroke-miterlimit:10;}
	.st2{fill:none;stroke:#FF1659;stroke-width:4;stroke-miterlimit:10;}
	.st3{fill:none;stroke:#FF1659;stroke-width:20;stroke-miterlimit:10;}
</style>
<g>
	<path class="st0" d="M966.2,287.5h-20.5c66.9-74.6,40.4-200.4-71.7-234c-26.2-7.9-54.4-6.6-79.8,3.4
		c-103.6,40.8-123.6,159.7-60,230.6H540V113.9h-94.7v173.6h-15.8V50.8h-94.7v236.8H319V161.3h-94.7v126.3H113.8
		c-34.9,0-63.1,28.3-63.1,63.1v473.5c0,34.9,28.3,63.1,63.1,63.1h325.3l-21.1,63.1h-67.5v47.4H185.4c-0.1,0-0.2,0-0.3,0.1
		c-15.6,13.9-6,31.4,7.7,31.4h701.9c0.1,0,0.2,0,0.3-0.1c15.6-13.9,6-31.4-7.7-31.4H729.4v-47.4h-67.5l-21.1-63.1h325.3
		c34.9,0,63.1-28.3,63.1-63.1V350.7C1029.3,315.8,1001,287.6,966.2,287.5z M855.7,83.5c48.4,7.1,86.5,45.1,93.6,93.6h-93.6V83.5z
		 M846.4,208.6h102.8c-8.7,60.4-64.6,102.3-125,93.6c-18.3-2.6-35.7-9.8-50.5-20.9L846.4,208.6z M729.4,192.8
		c0.1-54.9,40.4-101.4,94.7-109.3v102.8L751.4,259C737.1,239.9,729.4,216.7,729.4,192.8z M476.9,145.5h31.6v299.9h-31.6V145.5z
		 M429.5,319.1h15.8v126.3h-15.8V319.1z M366.4,82.3h31.6v363h-31.6V82.3z M319,319.1h15.8v126.3H319V319.1z M255.9,192.8h31.6
		v252.5h-31.6V192.8z M697.8,982v15.8H382.2V982H697.8z M451.4,950.4l21.1-63.1h135.1l21.1,63.1H451.4z M997.7,824.2
		c0,17.4-14.1,31.5-31.6,31.6H113.8c-17.4,0-31.5-14.1-31.6-31.6v-31.6h915.4V824.2z M997.7,761H82.3V350.7
		c0-17.4,14.1-31.5,31.6-31.6h110.5v126.3h-15.8V334.9h-94.7v142.1h536.6V334.9h-94.7v110.5H540V319.1h234.9
		c40.7,21,89.2,21,129.9,0h61.3c17.4,0,31.5,14.1,31.6,31.6V761z M177,366.4v78.9h-31.6v-78.9H177z M587.4,445.4v-78.9h31.6v78.9
		H587.4z"/>
	<path class="st0" d="M224.3,808.4h-94.7c-8.7,0-15.8,7.1-15.8,15.8s7.1,15.8,15.8,15.8h94.7c8.7,0,15.8-7.1,15.8-15.8
		S233,808.4,224.3,808.4z"/>
	<path class="st0" d="M918.8,619c-16.9,0-32.5,9-40.9,23.6l-165.2-96.4c-5.3-25.6-30.4-42-56-36.7c-18.9,3.9-33.5,18.9-36.9,37.9
		L453.4,672.1c-14.2-21.9-43.5-28.1-65.4-13.9c-7,4.5-12.6,10.8-16.4,18.2l-164.3-68.5c-6.1-25.4-31.7-41.1-57.1-35
		s-41.1,31.7-35,57.1s31.7,41.1,57.1,35c13.5-3.2,24.9-12.2,31.1-24.5L367.7,709c6.1,25.4,31.7,41.1,57.1,35
		c18.2-4.4,32.2-19.1,35.5-37.6l166.3-124.7c14.2,21.9,43.5,28.1,65.4,13.9c6.3-4.1,11.5-9.5,15.2-16L872.4,676
		c5.3,25.6,30.4,42,56,36.7c25.6-5.3,42-30.4,36.7-56C960.6,634.7,941.2,619,918.8,619z M177,619.1c0,8.7-7.1,15.8-15.9,15.8
		s-15.8-7.1-15.8-15.9c0-8.7,7.1-15.8,15.9-15.8C169.9,603.2,177,610.3,177,619.1L177,619.1z M413.7,713.7
		c-8.7,0-15.8-7.1-15.8-15.8v-0.1c0-8.7,7.1-15.7,15.9-15.7c8.7,0,15.7,7.1,15.7,15.9C429.5,706.7,422.4,713.7,413.7,713.7z
		 M666.3,571.6c-8.7,0-15.8-7.1-15.8-15.8s7.1-15.8,15.8-15.8c8.7,0,15.8,7.1,15.8,15.8C682,564.6,675,571.6,666.3,571.6z
		 M918.8,682.1c-8.7,0-15.8-7.1-15.8-15.8s7.1-15.8,15.8-15.8s15.8,7.1,15.8,15.8C934.6,675,927.5,682.1,918.8,682.1z"/>
	<path class="st0" d="M792.5,713.7H682.1c-8.7,0-15.8,7.1-15.8,15.8c0,8.7,7.1,15.8,15.8,15.8h110.5c8.7,0,15.8-7.1,15.8-15.8
		C808.3,720.7,801.3,713.7,792.5,713.7z"/>
	<path class="st0" d="M792.5,666.3h-47.4c-8.7,0-15.8,7.1-15.8,15.8c0,8.7,7.1,15.8,15.8,15.8h47.4c8.7,0,15.8-7.1,15.8-15.8
		C808.3,673.4,801.3,666.3,792.5,666.3z"/>
	<path class="st0" d="M129.6,524.3h173.6c8.7,0,15.8-7.1,15.8-15.8c0-8.7-7.1-15.8-15.8-15.8H129.6c-8.7,0-15.8,7.1-15.8,15.8
		C113.8,517.2,120.9,524.3,129.6,524.3z"/>
	<path class="st0" d="M350.6,524.3h15.8c8.7,0,15.8-7.1,15.8-15.8c0-8.7-7.1-15.8-15.8-15.8h-15.8c-8.7,0-15.8,7.1-15.8,15.8
		C334.8,517.2,341.9,524.3,350.6,524.3z"/>
</g>
<rect x="113.8" y="492.7" class="st0" width="205.2" height="31.6"/>
<rect x="334.8" y="492.7" class="st0" width="63.1" height="31.6"/>
<rect x="112.1" y="808.4" class="st0" width="148.2" height="31.6"/>
<rect x="288.4" y="808.4" class="st0" width="45.6" height="31.6"/>
<polygon class="st0" points="120,887.3 50.5,887.3 50.5,819.8 78,829.2 "/>
<polygon class="st0" points="960,887.3 1029.4,887.3 1029.4,819.8 1002,829.2 "/>
<polygon class="st0" points="120,287.9 50.5,287.9 50.5,355.4 78,346 "/>
<polygon class="st0" points="960,287.9 1029.4,287.9 1029.4,355.4 1002,346 "/>
<rect x="663.4" y="713.7" class="st0" width="147.4" height="31.6"/>
<rect x="722.3" y="665.3" class="st0" width="98.7" height="32.6"/>
<polyline class="st3" points="918.1,366.4 772,366.4 710,428.5 "/>
</svg>
