<?xml version="1.0" encoding="utf-8"?>
<!-- Generator: Adobe Illustrator 24.2.0, SVG Export Plug-In . SVG Version: 6.00 Build 0)  -->
<svg version="1.1" id="Layer_1" xmlns="http://www.w3.org/2000/svg" xmlns:xlink="http://www.w3.org/1999/xlink" x="0px" y="0px"
	 viewBox="0 0 1080 1080" style="enable-background:new 0 0 1080 1080;" xml:space="preserve">
<style type="text/css">
	.st0{fill:#FF1659;}
	.st1{fill:none;stroke:#FF1659;stroke-width:24.923;stroke-miterlimit:10;}
	.st2{fill:none;stroke:#FF1659;stroke-width:4;stroke-miterlimit:10;}
	.st3{fill:none;stroke:#FF1659;stroke-width:20;stroke-miterlimit:10;}
</style>
<g id="Outlines">
	<g>
		<path class="st0" d="M322.9,695.5c0-8.6-6.9-15.5-15.5-15.5h-68l81.9-163.6c1-2.2,1.6-4.5,1.6-6.9c0-79.9,43.8-153.3,114.2-191.2
			c7.5-4.2,10.1-13.7,5.8-21.1c-4.1-7.2-13.2-9.9-20.6-6.2c-79.2,42.6-129.2,124.8-130.5,214.8l-91.5,182.9
			c-3.8,7.7-0.7,17,6.9,20.8c2.2,1.1,4.6,1.6,7,1.6h93C315.9,711,322.9,704.1,322.9,695.5z"/>
		<path class="st0" d="M369.4,540.5c0,34.3,27.8,62,62,62s62-27.8,62-62s-27.8-62-62-62S369.4,506.2,369.4,540.5z M462.5,540.5
			c0,17.1-13.9,31-31,31c-17.1,0-31-13.9-31-31c0-17.1,13.9-31,31-31C448.6,509.5,462.5,523.3,462.5,540.5z"/>
		<path class="st0" d="M617.5,199.3v186.1c0,32,48.2,46.5,93,46.5s93-14.5,93-46.5V199.3c0-32-48.2-46.5-93-46.5
			S617.5,167.3,617.5,199.3z M772.7,322.5c-2.1,4.7-23.6,16.3-62.2,16.3c-38.5,0-60.1-11.7-62-15.5v-26.3c40.1,14.4,84,14.4,124.1,0
			L772.7,322.5z M772.7,260.5c-2.1,4.7-23.6,16.3-62.2,16.3c-38.5,0-60.1-11.7-62-15.5v-26.3c40.1,14.4,84,14.4,124.1,0L772.7,260.5
			z M710.6,400.9c-38.5,0-60.1-11.7-62-15.5v-26.3c40.1,14.4,84,14.4,124.1,0v25.5C770.7,389.2,749.1,400.9,710.6,400.9z
			 M710.6,214.8c-36.4,0-57.6-10.4-61.6-15.5c4-5.1,25.2-15.5,61.6-15.5c36.4,0,57.6,10.4,61.6,15.5
			C768.2,204.4,747,214.8,710.6,214.8z"/>
		<path class="st0" d="M860.3,182.5c0.1,0.1,0.2,0.2,0.3,0.4c14.8,20.4,25.3,43.6,30.9,68.1c-22.9,11.3-32.3,38.9-21,61.8
			c4.5,9.2,12,16.7,21.3,21.1c-18.8,84.8-94.2,145-181.1,144.6c-92-0.4-169.9-67.8-183.7-158.7c23.7-9.8,34.9-36.9,25.1-60.6
			c-3.8-9.2-10.4-16.9-18.9-22c30.2-98,134.1-153,232.1-122.7c19.8,6.1,38.4,15.4,55,27.7l18.3-25c-96.5-70.7-232.1-49.8-302.8,46.7
			c-14.9,20.3-26.1,43-33.2,67.1c-5.4,0.8-10.7,2.5-15.5,5.1l-105.9-96.2c10.4-23.6-0.3-51.1-23.9-61.5
			c-23.6-10.4-51.1,0.3-61.5,23.9c-4.5,10.3-5.2,21.9-1.8,32.7l-99.8,72.6c-7.7-5.4-16.9-8.2-26.4-8.2c-8.6,0-15.5,6.9-15.5,15.5
			s6.9,15.5,15.5,15.5s15.5,6.9,15.5,15.5s-6.9,15.5-15.5,15.5s-15.5-6.9-15.5-15.5s-6.9-15.5-15.5-15.5c-8.6,0-15.5,6.9-15.5,15.5
			c0.1,23.6,17.8,43.3,41.2,46l26.9,116.5c-21.8,13.7-28.4,42.5-14.7,64.3s42.5,28.4,64.3,14.7c21.8-13.7,28.4-42.5,14.7-64.3
			c-7.5-12-20-19.9-34.1-21.5L192.8,285c13.4-8.5,21.5-23.3,21.6-39.1c-0.1-4.5-0.8-8.9-2.1-13.1l99.8-72.6
			c14.3,10,32.9,10.9,48.2,2.5L466,258.7c-9.9,23.5,1.1,50.7,24.6,60.6c1.7,0.7,3.4,1.3,5.1,1.8C510.5,428.7,602.1,509,710.6,509.5
			c76.3,0.3,147.1-39.8,186.1-105.5v154.8c-13.1,4.7-23.5,15.1-28.2,28.2h-80.4V547c0-8.6-6.9-15.5-15.5-15.5
			c-8.6,0-15.5,6.9-15.5,15.5V587h-80.4c-8.6-24.2-35.1-36.9-59.4-28.4c-24.2,8.6-36.9,35.1-28.4,59.4c8.6,24.2,35.1,36.9,59.4,28.4
			c13.2-4.7,23.7-15.1,28.4-28.4h75.8c-13.8,46-56,77.5-104,77.5H633c-34.3,0-62,27.8-62,62c0.1,68.5-55.5,124.1-124,124.2
			c-62.6,0-115.4-46.5-123.2-108.6h45.6c8.6,0,15.5-6.9,15.5-15.5c0-8.6-6.9-15.5-15.5-15.5h-62c-8.6,0-15.5,6.9-15.5,15.5
			c0.1,85.6,69.5,155,155.1,155.1v77.5c0,8.6,6.9,15.5,15.5,15.5s15.5-6.9,15.5-15.5v-80.6c72.2-14.8,124-78.3,124.1-152
			c0-17.1,13.9-31,31-31h15.5c65.1-0.1,121.5-45.1,136-108.6h84c8.5,24.2,35,36.9,59.2,28.4c24.2-8.5,36.9-35,28.4-59.2
			c-4.7-13.3-15.1-23.7-28.4-28.4V336c24.2-8.5,36.9-34.9,28.4-59.1c-5.3-15.2-18.1-26.5-33.8-30c-6.3-29.7-18.8-57.8-36.6-82.4
			L860.3,182.5z M229.8,447.4c0,8.6-6.9,15.5-15.5,15.5s-15.5-6.9-15.5-15.5s6.9-15.5,15.5-15.5S229.8,438.9,229.8,447.4z
			 M322.9,121.8c0-8.6,6.9-15.5,15.5-15.5c8.6,0,15.5,6.9,15.5,15.5s-6.9,15.5-15.5,15.5C329.8,137.3,322.9,130.3,322.9,121.8z
			 M509,261.3c8.6,0,15.5,6.9,15.5,15.5c0,8.6-6.9,15.5-15.5,15.5s-15.5-6.9-15.5-15.5C493.5,268.3,500.4,261.3,509,261.3z M633,618
			c-8.6,0-15.5-6.9-15.5-15.5c0-8.6,6.9-15.5,15.5-15.5c8.6,0,15.5,6.9,15.5,15.5C648.5,611.1,641.6,618,633,618z M912.2,307.9
			L912.2,307.9H912h-0.1c-8.5-0.2-15.2-7.3-15-15.8c0.2-8.1,6.7-14.7,14.9-15h0.2l0.2-0.2l0,0c8.6,0,15.5,6.9,15.5,15.5
			C927.7,300.9,920.7,307.9,912.2,307.9z M912.2,618c-8.6,0-15.5-6.9-15.5-15.5c0-8.6,6.9-15.5,15.5-15.5c8.6,0,15.5,6.9,15.5,15.5
			C927.7,611.1,920.7,618,912.2,618z"/>
		<g>
			<path class="st0" d="M772.6,711c-8.6,0-15.5,6.9-15.5,15.5v93H648.5c-8.6,0-15.5,6.9-15.5,15.5v124.1c0,8.6,6.9,15.5,15.5,15.5
				h62c8.6,0,15.5-6.9,15.5-15.5c0-8.6-6.9-15.5-15.5-15.5H664v-93h93v139.6c0,8.6,6.9,15.5,15.5,15.5c8.6,0,15.5-6.9,15.5-15.5
				V726.6C788.1,718,781.2,711,772.6,711z"/>
		</g>
	</g>
</g>
<rect x="291.9" y="739.8" class="st0" width="101.7" height="33.3"/>
<rect x="406.3" y="935.8" transform="matrix(6.123234e-17 -1 1 6.123234e-17 -490.8839 1413.978)" class="st0" width="110.6" height="33.3"/>
<rect x="633" y="818.8" class="st0" width="138.7" height="31.8"/>
<rect x="633" y="942.8" class="st0" width="104.3" height="31.8"/>
<rect x="571" y="880.8" transform="matrix(6.123234e-17 -1 1 6.123234e-17 -247.7851 1545.6776)" class="st0" width="155.9" height="31.8"/>
<rect x="692.4" y="883.2" class="st0" width="27.9" height="27.9"/>
<rect x="753.4" y="711.1" class="st0" width="34.7" height="294.6"/>
<rect x="757.2" y="527.4" class="st0" width="30.9" height="35.5"/>
<polygon class="st0" points="453.3,308.6 419.2,329 403.7,302.6 433.8,281.7 "/>
</svg>
