<?xml version="1.0" encoding="utf-8"?>
<!-- Generator: Adobe Illustrator 24.2.0, SVG Export Plug-In . SVG Version: 6.00 Build 0)  -->
<svg version="1.1" id="Layer_1" xmlns="http://www.w3.org/2000/svg" xmlns:xlink="http://www.w3.org/1999/xlink" x="0px" y="0px"
	 viewBox="0 0 1080 1080" style="enable-background:new 0 0 1080 1080;" xml:space="preserve">
<style type="text/css">
	.st0{fill:#FF1659;}
	.st1{fill:none;stroke:#FF1659;stroke-width:24.923;stroke-miterlimit:10;}
	.st2{fill:none;stroke:#FF1659;stroke-width:4;stroke-miterlimit:10;}
	.st3{fill:none;stroke:#FF1659;stroke-width:20;stroke-miterlimit:10;}
</style>
<g>
	<g>
		<g>
			<path class="st0" d="M1030.4,121.8c0-0.3,0-0.6,0-0.9c0-0.5-0.1-0.9-0.2-1.4c0-0.2-0.1-0.5-0.1-0.7c-0.1-0.6-0.2-1.1-0.4-1.7
				c0-0.1-0.1-0.2-0.1-0.3c-0.2-0.7-0.5-1.4-0.7-2c0-0.1-0.1-0.2-0.2-0.3c-0.2-0.5-0.5-1-0.8-1.6c-0.2-0.4-0.5-0.8-0.7-1.2
				c-0.3-0.4-0.6-0.8-0.9-1.2c-0.3-0.4-0.7-0.8-1-1.2c-0.1-0.1-0.2-0.2-0.3-0.3c0,0-0.1,0-0.1-0.1c-0.5-0.5-1-1-1.5-1.4
				c-0.2-0.1-0.3-0.2-0.5-0.4c-0.4-0.3-0.8-0.6-1.3-0.9c-0.4-0.3-0.9-0.5-1.3-0.8c-0.4-0.1-0.8-0.4-1.2-0.5
				c-0.5-0.2-1.1-0.4-1.6-0.6c-0.1,0-0.2-0.1-0.4-0.1c-0.7-0.2-1.4-0.4-2.1-0.5c-0.2,0-0.3,0-0.5-0.1c-0.5-0.1-1.1-0.2-1.6-0.2
				c-0.3,0-0.6,0-0.8,0c-0.3,0-0.6,0-0.8,0H223.8v239.6H49.6V602h57.7v38.6H49.6v259.2h57.7v77h618.3v-77h57.7v-80.3h247.3V122.3
				C1030.4,122.1,1030.4,122,1030.4,121.8z M987.2,145.9l-32.9,169.4l-26-26c-7.4-7.4-19.5-7.5-27-0.1L764.2,423.5l-60.4-61.4
				l135.7-134.3c6.5-6.4,7.9-17.1,1.6-25.6l-26.8-26.8L987.2,145.9z M262.1,141.5h523.1l-18.2,3.1c-13.8,7.6-3,22.4-5.9,31.7
				l37.8,37.8l-130,128.7H262.1V141.5z M87.9,563.7V381.1h580.9l21.8,22.2l54.2,55.2v105.3h-38.5H126.4H87.9z M687.2,602v38.6H145.6
				V602H687.2z M145.6,938.5v-38.6h541.6v38.6H145.6z M706.3,861.6H126.4H87.9v-72.1l245.8,0c0.1,0,0.2,0,0.3-0.1
				c19-16.9,7.3-38.2-9.3-38.2H87.9V679h38.5h579.9h38.5v182.6H706.3z M992.1,781.3h-209v0V640.7h-57.7V602h57.7V458.6l131.5-128.8
				L954,369c5,5,11.1,5.7,17.9,3.6c6.8-2.1,11.9-7.7,13.2-14.7l7.1-36.3V781.3z"/>
		</g>
	</g>
	<g>
		<g>
			<path class="st0" d="M680.5,705.9H467.1v128.7h213.4V705.9z M642.2,796.3H505.4v-52.1h136.8V796.3z"/>
		</g>
	</g>
	<g>
		<g>
			<path class="st0" d="M680.5,408H467.1v45.2H214.4c-0.1,0-0.2,0-0.3,0.1c-19,16.9-7.3,38.2,9.3,38.2h243.7v45.2h213.4V408z
				 M642.2,498.4H505.4v-52.1h136.8V498.4z"/>
		</g>
	</g>
</g>
<rect x="126" y="453" transform="matrix(0.7071 -0.7071 0.7071 0.7071 -291.2849 240.7761)" class="st0" width="38" height="38"/>
<rect x="385" y="751" transform="matrix(0.7071 -0.7071 0.7071 0.7071 -426.1434 511.1989)" class="st0" width="38" height="38"/>
<rect x="204" y="451" class="st0" width="268" height="42"/>
<rect x="75" y="749" class="st0" width="276" height="42"/>
<polyline class="st2" points="224,103 1030,103 1030,820 "/>
<rect x="1007" y="103" class="st0" width="24" height="24"/>
<polygon class="st0" points="771.4,186.5 761.1,176.3 736,150 791.5,140.5 792.9,153.6 "/>
<polygon class="st0" points="937,352 979.6,394.4 989,335.6 975,333.9 "/>
</svg>
